<svg xmlns="http://www.w3.org/2000/svg" width="70" height="46" viewBox="0 0 70 46"><g fill="none" fill-rule="evenodd"><path d="M0 3c0-1.657 1.336-3 3.008-3h63.984A3.01 3.01 0 0 1 70 3v40c0 1.657-1.336 3-3.008 3H3.008A3.01 3.01 0 0 1 0 43V3z" fill="#016FD0"></path><path d="M13.598 37.773V26.657h11.584l1.243 1.646 1.284-1.646h42.048v10.35s-1.1.755-2.372.766H44.102l-1.4-1.753v1.753h-4.593v-2.991s-.627.417-1.983.417h-1.563v2.574H27.61l-1.24-1.682-1.26 1.682H13.597zM.07 18.278l2.612-6.187H7.2l1.482 3.466V12.09h5.616l.883 2.505.855-2.505h25.21v1.26s1.325-1.26 3.503-1.26l8.18.029 1.457 3.42v-3.45h4.7l1.293 1.966V12.09h4.743v11.116h-4.743l-1.24-1.972v1.972h-6.905l-.694-1.752h-1.856L49 23.207h-4.683c-1.874 0-3.072-1.234-3.072-1.234v1.234h-7.06l-1.402-1.752v1.752H6.531l-.694-1.752h-1.85l-.69 1.752H.07v-4.929z" fill="#FFF"></path><path d="M3.607 13.461.083 21.784h2.294l.65-1.666h3.78l.647 1.666h2.344l-3.52-8.323H3.607zm1.303 1.937 1.152 2.913H3.755l1.155-2.913z" fill="#016FD0" fill-rule="nonzero"></path><path fill="#016FD0" d="M10.04 21.783V13.46l3.26.012 1.896 5.366 1.85-5.378h3.235v8.323h-2.048V15.65l-2.171 6.133h-1.796l-2.177-6.133v6.133zM21.682 21.783V13.46h6.683v1.861h-4.613v1.424h4.505v1.753h-4.505v1.478h4.613v1.807z"></path><path d="M29.55 13.461v8.323H31.6v-2.957h.862l2.456 2.957h2.502l-2.694-3.066c1.106-.095 2.246-1.06 2.246-2.557 0-1.751-1.353-2.7-2.863-2.7h-4.557zm2.049 1.862h2.34c.562 0 .97.446.97.876 0 .553-.528.876-.939.876H31.6v-1.752z" fill="#016FD0" fill-rule="nonzero"></path><path fill="#016FD0" d="M39.899 21.783h-2.092V13.46H39.9zM44.857 21.783h-.451c-2.184 0-3.51-1.748-3.51-4.127 0-2.439 1.31-4.196 4.069-4.196h2.263v1.971h-2.346c-1.12 0-1.911.888-1.911 2.245 0 1.612.905 2.29 2.21 2.29h.538l-.862 1.817z"></path><path d="m49.313 13.461-3.523 8.323h2.294l.65-1.666h3.78l.646 1.666h2.345l-3.52-8.323h-2.672zm1.304 1.937 1.152 2.913h-2.307l1.155-2.913z" fill="#016FD0" fill-rule="nonzero"></path><path fill="#016FD0" d="M55.744 21.783V13.46h2.604l3.324 5.23v-5.23h2.048v8.323H61.2l-3.408-5.366v5.366zM14.999 36.349v-8.323h6.683v1.861h-4.614v1.424h4.506v1.752h-4.506v1.479h4.614v1.807zM47.746 36.349v-8.323h6.683v1.861h-4.614v1.424H54.3v1.752h-4.484v1.479h4.614v1.807zM21.941 36.349l3.254-4.11-3.331-4.213h2.58l1.984 2.604 1.99-2.604h2.48l-3.288 4.161 3.26 4.162h-2.58l-1.926-2.563-1.88 2.563z"></path><path d="M31.114 28.027v8.323h2.102v-2.628h2.155c1.824 0 3.207-.983 3.207-2.895 0-1.584-1.084-2.8-2.94-2.8h-4.524zm2.102 1.882h2.27c.59 0 1.01.367 1.01.959 0 .555-.419.958-1.017.958h-2.263v-1.917zM39.467 28.026v8.323h2.048v-2.957h.863l2.455 2.957h2.503l-2.695-3.066c1.106-.095 2.247-1.06 2.247-2.557 0-1.752-1.353-2.7-2.863-2.7h-4.558zm2.048 1.861h2.342c.561 0 .97.447.97.877 0 .553-.53.876-.94.876h-2.372v-1.753z" fill="#016FD0" fill-rule="nonzero"></path><path d="M55.377 36.349v-1.807h4.1c.606 0 .868-.333.868-.698 0-.35-.262-.704-.869-.704h-1.852c-1.61 0-2.507-.996-2.507-2.493 0-1.334.821-2.621 3.214-2.621h3.988l-.862 1.872h-3.45c-.659 0-.862.352-.862.688 0 .345.251.725.755.725h1.94c1.795 0 2.573 1.035 2.573 2.39 0 1.455-.867 2.648-2.67 2.648h-4.366zM62.894 36.349v-1.807h4.099c.606 0 .869-.333.869-.698 0-.35-.262-.704-.87-.704h-1.851c-1.61 0-2.507-.996-2.507-2.493 0-1.334.821-2.621 3.214-2.621h3.988l-.863 1.872h-3.449c-.66 0-.862.352-.862.688 0 .345.25.725.754.725h1.94c1.795 0 2.574 1.035 2.574 2.39 0 1.455-.868 2.648-2.671 2.648h-4.365z" fill="#016FD0"></path></g></svg>