<svg xmlns="http://www.w3.org/2000/svg" width="70" height="70" viewBox="0 0 70 70"><defs><linearGradient x1="50%" y1="0%" x2="50%" y2="100%" id="a8efl5pdfa"><stop stop-color="#314856" offset="0%"></stop><stop stop-color="#1E282E" offset="100%"></stop></linearGradient></defs><g fill="none" fill-rule="evenodd"><circle stroke="#FFF" stroke-width="3" fill="url(#a8efl5pdfa)" cx="35" cy="35" r="33.5"></circle><path d="M35.007 51.334c2.68-6.402 5.684-12.448 9.069-18.079 1.53 3.392 2.627 6.75 2.627 9.443 0 6.391-5.16 11.591-11.503 11.591-6.342 0-11.502-5.2-11.502-11.59 0-7.786 8.78-21.11 11.313-24.792 1.395 1.962 4.64 6.7 7.362 11.87a59.44 59.44 0 0 0-7.245 11.404c-1.18-2.33-2.658-4.154-4.492-5.382l-3.521 5.382c2.263.974 4.969 4.853 7.892 10.153M54.792 18.11c-4.13 2.966-7.902 6.346-11.24 10.232-3.47-6.473-7.577-12.02-7.873-12.418l-.69-.924-.675.936C33.81 16.63 22 33.093 22 42.698 22 50.032 27.922 56 35.2 56c7.28 0 13.202-5.968 13.202-13.302 0-3.233-1.392-7.24-3.244-11.162 2.972-4.757 6.224-9.21 9.803-13.303.1-.183-.004-.25-.169-.123" fill="#FEFEFE"></path></g></svg>