<svg xmlns="http://www.w3.org/2000/svg" xmlns:xlink="http://www.w3.org/1999/xlink" width="70" height="52" viewBox="0 0 70 52"><defs><path id="6el1834vza" d="M0 0h70v52H0z"></path></defs><g fill="none" fill-rule="evenodd"><mask id="i8oxohdg1b" fill="#fff"><use xlink:href="#6el1834vza"></use></mask><path d="M51.473 34.613c-2.639 2.55-8.754 1.723-7.592-2.9.394-1.138 1.88-1.92 3.02-1.345.534.274.909.999.579 1.561-.272.484-1.14.973-1.601.477.461.522 1.354.051 1.662-.442.374-.597.003-1.392-.57-1.717-1.23-.664-2.844.112-3.346 1.361-.59 1.507-.039 2.931 1.015 3.87h-9.043c.24-.71.224-1.492-.198-2.169-1.16-1.866-3.782-1.475-3.231.998-.148-2.085 1.806-2.422 2.754-.734.682 1.32-.301 3.014-1.755 3.275-3.385.737-5.825-2.636-5.095-5.831-.624 1.539-.38 3.192.423 4.464-3.612.057-8.55 1.14-10.34-2.614 1.49.989 3.417 1.3 5.031.372 1.214-.737 1.93-2.454 1.114-3.707-.656-1.033-2.552-2.015-3.496-.893.957-1.033 2.734.022 3.279 1.017.656 1.148-.093 2.591-1.128 3.205-2.289 1.252-5.357-.366-6.24-2.664-1.995-5.682 3.516-9.405 8.757-9.173.042 2.75 2.453 5.338 5.447 4.048 1.31-.662 1.617-2.67.234-3.405-.525-.325-1.438-.604-1.864-.004.439-.578 1.323-.273 1.829.058 1.29.747.94 2.594-.295 3.176-3.596 1.411-6.148-3.04-4.278-5.97 1.313-2.306 4.25-3.078 6.76-2.859 2.433.146 4.457 1.949 5.37 4.104-1.483.671-2.633 2.035-2.886 4.184-.144 1.437.551 3.03 1.874 3.73 1.252.737 3.26.613 3.906-.852.781-1.4-1.028-2.871-2.085-2.232.462-.191 1.07.15 1.397.467.928.906-.042 2.299-1.163 2.305-3.436.013-3.74-4.604-1.293-6.266 1.88-1.386 4.921-1.278 6.698.314 1.758 1.596 3.061 4.515 1.841 6.788.436-.54.634-1.202.689-1.885 3.263.474 6.292 5.058 3.82 7.888zM18.297 33.2c.086.169.176.334.275.483l-6.76 6.238 6.485-6.721zm29.695-11.716 10.196-9.407-10.91 11.309-.842-4.722-2.229 1.803a7.189 7.189 0 0 0-1.165-.467l4.262-3.373.688 4.857zm-.358 4.2a7.441 7.441 0 0 0-.135-.861c-.022-.121-.073-.22-.1-.337L70 0 49.645 16.39l-.145-.862 12.367-10.52-12.741 8.234-.512-3.1-10.433 7.487c-1.245-1.358-2.926-2.283-4.812-2.353-2.773-.152-5.924.811-7.292 3.396-.246.42-.413.861-.512 1.313-5.796-.178-11.854 4.203-9.462 10.47.365.86 1 1.611 1.764 2.19L0 52l20.359-16.39.14.862-12.366 10.52 12.741-8.234.512 3.1 7.762-5.57c1.019 1.033 2.495 1.602 4.182 1.234.804-.137 1.49-.668 1.928-1.348H45.68c.775.365 1.666.518 2.54.365 7.617-.458 5.59-9.766-.586-10.854z" fill="#FEFEFE" mask="url(#i8oxohdg1b)"></path></g></svg>