<svg xmlns="http://www.w3.org/2000/svg" xmlns:xlink="http://www.w3.org/1999/xlink" width="70" height="46" viewBox="0 0 70 46"><defs><path id="wd55gc1n3a" d="M51.563 21V0H0v21z"></path><path d="M32.003 2.502c-2.71 0-4.91 2.258-4.91 5.038 0 2.96 2.105 5.17 4.91 5.17 2.735 0 4.897-2.24 4.897-5.112 0-2.852-2.147-5.096-4.897-5.096" id="ht89rx82fc"></path></defs><g fill="none" fill-rule="evenodd"><rect fill="#FFF" width="70" height="46" rx="7"></rect><g transform="translate(17.34 24.556)"><mask id="rn2jxgqgyb" fill="#fff"><use xlink:href="#wd55gc1n3a"></use></mask><path d="M51.563 2S33.352 15.049 0 20.889h46.563a5 5 0 0 0 5-5V2z" fill="#F4811F" mask="url(#rn2jxgqgyb)"></path></g><rect stroke="#E6E7E8" x=".5" y=".5" width="69" height="45" rx="5.625"></rect><g transform="translate(5 11.333)"><path d="M4.135 2.69H1.497v9.799H4.12c1.396 0 2.401-.35 3.285-1.13 1.05-.925 1.672-2.323 1.672-3.765 0-2.893-2.031-4.904-4.942-4.904zm2.1 7.36c-.568.545-1.298.78-2.46.78h-.482V4.346h.483c1.16 0 1.863.222 2.46.794.62.59.99 1.5.99 2.44 0 .943-.37 1.885-.99 2.47zM9.904 2.69h1.794v9.799H9.904zM16.089 6.448c-1.079-.425-1.396-.705-1.396-1.232 0-.619.565-1.089 1.341-1.089.537 0 .98.235 1.449.791l.937-1.304c-.77-.723-1.696-1.09-2.705-1.09-1.627 0-2.871 1.205-2.871 2.805 0 1.354.58 2.046 2.263 2.694.705.262 1.064.439 1.244.558.358.251.54.601.54 1.013 0 .795-.597 1.383-1.399 1.383-.854 0-1.544-.457-1.958-1.309l-1.157 1.191c.825 1.293 1.819 1.867 3.187 1.867 1.864 0 3.173-1.324 3.173-3.218 0-1.56-.605-2.265-2.648-3.06M19.304 7.594c0 2.883 2.124 5.116 4.86 5.116.771 0 1.433-.163 2.248-.572V9.89c-.717.764-1.354 1.071-2.168 1.071-1.807 0-3.09-1.397-3.09-3.38 0-1.881 1.323-3.366 3.01-3.366.854 0 1.503.323 2.248 1.103v-2.25c-.785-.426-1.434-.6-2.206-.6-2.72 0-4.902 2.278-4.902 5.126M40.961 9.273 38.503 2.69h-1.959l3.907 10.05h.965l3.975-10.05h-1.944L40.96 9.273M46.207 12.489h5.094v-1.66h-3.3V8.185h3.173V6.523h-3.173V4.346h3.3V2.69h-5.094v9.799M58.407 5.58c0-1.835-1.185-2.89-3.256-2.89h-2.665v9.799h1.796v-3.94h.234L57 12.49h2.208l-2.9-4.13c1.356-.293 2.099-1.278 2.099-2.779zM54.804 7.2h-.522V4.23h.552c1.119 0 1.728.501 1.728 1.455 0 .983-.61 1.517-1.758 1.517z" fill="#001722"></path><path d="M59.708 3.436c0-.185-.114-.283-.323-.283h-.278v.916h.204v-.355l.24.355h.256l-.287-.38a.248.248 0 0 0 .188-.253zm-.361.122h-.036v-.24h.04c.101 0 .15.044.15.12 0 .08-.051.12-.154.12z" fill="#231F20"></path><path d="M59.407 2.828c-.391 0-.709.336-.709.754 0 .42.32.755.71.755.384 0 .697-.339.697-.755 0-.413-.313-.754-.698-.754zm0 1.374c-.317 0-.569-.276-.569-.617 0-.346.252-.62.57-.62.304 0 .555.28.555.62 0 .339-.251.617-.556.617z" fill="#231F20"></path><use fill="#F58220" xlink:href="#ht89rx82fc"></use></g></g></svg>