<svg xmlns="http://www.w3.org/2000/svg" width="70" height="46" viewBox="0 0 70 46"><g fill="none" fill-rule="evenodd"><path d="M66.992.5c.692 0 1.318.281 1.772.734A2.49 2.49 0 0 1 69.5 3v40a2.502 2.502 0 0 1-2.508 2.5H3.008a2.502 2.502 0 0 1-1.772-.734A2.49 2.49 0 0 1 .5 43V3A2.502 2.502 0 0 1 3.008.5z" stroke="#E6E7E8" fill="#FFF"></path><path d="M29.442 12h6.824c1.922 0 4.201.062 5.726 1.407 1.02.899 1.554 2.33 1.43 3.867-.418 5.21-3.535 8.13-7.715 8.13h-3.365c-.573 0-.953.379-1.114 1.407l-.94 5.974c-.06.388-.229.616-.535.644h-4.204c-.467 0-.632-.357-.51-1.13l3.027-19.165c.121-.768.541-1.134 1.376-1.134" fill="#1B3D92"></path><path d="M33.83 18h6.818c3.66 0 5.038 1.853 4.825 4.58-.35 4.494-3.068 6.979-6.672 6.979h-1.82c-.494 0-.827.326-.961 1.214l-.78 5.152c-.052.335-.227.531-.492.555h-4.275c-.402 0-.545-.307-.44-.974l2.61-16.528c.105-.663.468-.978 1.188-.978" fill="#00A2D3"></path><path d="m31 26.52 1.192-7.542c.104-.663.467-.978 1.187-.978h6.817c1.129 0 2.04.176 2.755.5-.685 4.638-3.685 7.215-7.612 7.215h-3.366c-.443 0-.774.226-.973.805" fill="#1B2E7F"></path></g></svg>