<svg xmlns="http://www.w3.org/2000/svg" width="170" height="46" viewBox="0 0 170 46"><g fill="none" fill-rule="evenodd"><path d="M166.995.5c.691 0 1.316.281 1.77.734.454.453.735 1.079.735 1.766v40a2.499 2.499 0 0 1-2.505 2.5H3.005c-.691 0-1.316-.281-1.77-.734A2.492 2.492 0 0 1 .5 43V3A2.499 2.499 0 0 1 3.005.5z" stroke="#E6E7E8" fill="#FFF"></path><path d="M26.285 3.23c4.398 3.678 13.306 5.16 18.229 5.344a1.01 1.01 0 0 1 .982 1.047c-.204 4.127-1.601 12.94-3.59 17.319-4.738 10.434-15.279 15.577-16.158 15.577-.879 0-11.416-5.138-16.155-15.568C7.605 22.573 6.208 13.76 6.001 9.636c-.029-.574.443-1.041 1.017-1.056 5.875-.156 13.645-1.626 17.969-5.337a1.008 1.008 0 0 1 1.298-.012zM26 15a4 4 0 0 0-4 4v1h-.212l-.672.053a2.03 2.03 0 0 0-1.854 1.677c-.35 2.1-.35 4.244 0 6.345a2.03 2.03 0 0 0 1.854 1.677l1.449.114c2.286.179 4.583.179 6.87 0l1.448-.114a2.03 2.03 0 0 0 1.854-1.677c.35-2.101.35-4.244 0-6.345a2.03 2.03 0 0 0-1.854-1.677L30.211 20H30v-1a4 4 0 0 0-4-4zm0 8.476a1.44 1.44 0 0 1 1.452 1.426A1.44 1.44 0 0 1 26 26.33a1.44 1.44 0 0 1-1.452-1.427c0-.788.65-1.426 1.452-1.426zM26 17a2 2 0 0 1 2 2v1h-4v-1a2 2 0 0 1 2-2z" fill="#7E868B"></path><text font-family="Montserrat-LightItalic, Montserrat" font-size="18" font-style="italic" font-weight="300" fill="#7E868B"><tspan x="47.5" y="23">VERIFIED</tspan></text><text font-family="Montserrat-Bold, Montserrat" font-size="16" font-weight="bold" fill="#7E868B"><tspan x="47.5" y="38">100% SECURE</tspan></text></g></svg>