<svg xmlns="http://www.w3.org/2000/svg" width="70" height="46" viewBox="0 0 70 46"><g fill="none" fill-rule="evenodd"><path d="M66.992.5c.692 0 1.318.281 1.772.734A2.49 2.49 0 0 1 69.5 3v40a2.502 2.502 0 0 1-2.508 2.5H3.008a2.502 2.502 0 0 1-1.772-.734A2.49 2.49 0 0 1 .5 43V3A2.502 2.502 0 0 1 3.008.5z" stroke="#E6E7E8" fill="#FFF"></path><g fill="#6772E5"><path d="M55 23.772c0-2.901-1.378-5.19-4.011-5.19-2.645 0-4.245 2.289-4.245 5.167 0 3.412 1.89 5.134 4.6 5.134 1.323 0 2.323-.306 3.078-.736V25.88c-.755.385-1.622.623-2.722.623-1.078 0-2.033-.385-2.156-1.722h5.434c0-.148.022-.737.022-1.009zm-5.489-1.077c0-1.28.767-1.813 1.467-1.813.678 0 1.4.533 1.4 1.813H49.51zM42.456 18.581c-1.09 0-1.79.522-2.178.884l-.145-.702H37.69v13.214l2.778-.6.01-3.208c.4.295.99.714 1.967.714 1.99 0 3.8-1.632 3.8-5.224-.01-3.287-1.844-5.078-3.788-5.078zm-.667 7.809c-.656 0-1.045-.238-1.311-.533l-.011-4.204c.289-.329.689-.556 1.322-.556 1.011 0 1.711 1.156 1.711 2.641 0 1.519-.689 2.652-1.711 2.652zM33.867 17.913l2.789-.612V15l-2.79.6zM33.867 18.774h2.789v9.917h-2.789zM30.878 19.613l-.178-.839h-2.4v9.917h2.778V21.97c.655-.873 1.766-.714 2.11-.59v-2.606c-.355-.136-1.655-.385-2.31.839zM25.322 16.315l-2.71.589-.012 9.078c0 1.677 1.233 2.913 2.878 2.913.91 0 1.578-.17 1.944-.374V26.22c-.355.147-2.11.669-2.11-1.009v-4.023h2.11v-2.414h-2.11l.01-2.46zM17.811 21.653c0-.442.356-.612.945-.612.844 0 1.91.26 2.755.725v-2.663a7.2 7.2 0 0 0-2.755-.522C16.5 18.581 15 19.783 15 21.79c0 3.128 4.222 2.629 4.222 3.978 0 .521-.444.691-1.066.691-.923 0-2.1-.385-3.034-.907v2.698a7.573 7.573 0 0 0 3.034.646c2.31 0 3.9-1.168 3.9-3.196-.012-3.378-4.245-2.777-4.245-4.046z"></path></g></g></svg>