<svg xmlns="http://www.w3.org/2000/svg" width="120" height="58" viewBox="0 0 120 58"><g fill="none" fill-rule="evenodd"><path d="M114 0 82.039 23.236l-.03-5.541-2.529 1.62c.126.894.19 1.807.19 2.736 0 10.795-8.75 19.545-19.545 19.545-8.098 0-15.045-4.924-18.011-11.942l-9.832 5.276.133-3.606-16.157 6.4 16.255-9.055.038-1.002L6 41.527l31.961-23.235.03 5.54 2.59-1.659-.001-.122c0-10.795 8.75-19.545 19.545-19.545 7.248 0 13.574 3.945 16.95 9.805l10.643-5.713-.133 3.606 16.157-6.4-16.255 9.055-.038 1.002L114 0zM60.25 4.51c-9.602 0-17.415 7.813-17.415 17.416 0 9.603 7.813 17.415 17.416 17.415 9.603 0 17.415-7.812 17.415-17.415 0-9.603-7.812-17.416-17.415-17.416zm-2.4 4.086.268.142c.465.249.986.377 1.513.376l1.163-.004a3.195 3.195 0 0 0 1.564-.414l.221-.117a4.916 4.916 0 0 1 4.71.172l3.65 2.172c.14.084.296.139.459.16.237.032.456.13.633.282l1.838 1.574.061.093c.391 1.32.889 3.259 1.186 4.416l.038.147c.012.049.006.1-.016.145l-2.4 4.711c.168.703.363 1.49.561 2.297.337 1.366.686 2.782.948 3.928a.18.18 0 0 1-.048.168c-3.367 3.475-7.716 6.034-12.616 7.434.955.226 1.94.42 2.935.58a.207.207 0 0 1 .015.407l-.014.003a17.258 17.258 0 0 1-8.612.048l-.014-.004a.207.207 0 0 1 0-.41 32.33 32.33 0 0 0 3.147-.616c-5.238-1.385-9.68-3.908-12.884-7.326l-.107-.121a.205.205 0 0 1-.047-.183l.04-.175c.254-1.101.6-2.505.93-3.848.19-.77.376-1.521.535-2.182l-2.4-4.711-.017-.146.156-.598c.326-1.256.731-2.819 1.068-3.964l.061-.093 1.838-1.574c.179-.153.398-.25.631-.281l.121-.023c.12-.028.235-.075.341-.138l3.72-2.214a4.917 4.917 0 0 1 4.825-.113zM60.335 36.6c-.853.206-1.718.366-2.584.497l5.143-.026a35.65 35.65 0 0 1-2.559-.471zm-1.77-8.928-1.072 5.732a.207.207 0 0 1-.295.148l-1.005-.391-.656-.256-.316 1.225a34.116 34.116 0 0 0 5.083 1.819 31.448 31.448 0 0 0 4.73-1.789l-.324-1.254-.638.248c-.516.2-1.01.393-1.036.404a.208.208 0 0 1-.178-.01.206.206 0 0 1-.105-.144l-1.069-5.722-1.467.452a.213.213 0 0 1-.122 0l-1.53-.462zm4.78-.501-1.252.386 1.264 4.974 1.741-.921a.206.206 0 0 1 .162-.014.204.204 0 0 1 .122.105c.038.077.354.69.648 1.262l.282.549c.742-.397 1.46-.821 2.14-1.265l-.596-2.401-1.602 1.052a.208.208 0 0 1-.284-.053l-2.625-3.674zm-6.442-.002-2.627 3.676a.208.208 0 0 1-.284.053l-1.602-1.052-.603 2.43c.677.43 1.399.843 2.15 1.23l.398-.775.529-1.03a.21.21 0 0 1 .284-.091l1.741.921 1.266-4.983-1.252-.379zm1.159-2.596-4.866 2.993a.208.208 0 0 1-.228-.006l-1.888-1.301-1.754 4.225c.418.348.815.657 1.2.939l.538-1.325.676-1.667a.207.207 0 0 1 .325-.084l1.943 1.578 2.634-3.105c.015-.017.037-.018.056-.03l.96-1.412a1.255 1.255 0 0 1 1.038-.548h.303l-.788-.203a.524.524 0 0 1-.15-.054zm4.128.002a.21.21 0 0 1-.06.026l-.88.229h.335c.424 0 .816.21 1.049.563l.923 1.402c.015.01.035.01.048.025l2.633 3.105 1.943-1.578a.21.21 0 0 1 .328.091c.018.05.32.791.644 1.588l.13.32.422 1.038c.379-.28.775-.59 1.2-.94l-1.739-4.185-1.888 1.3a.206.206 0 0 1-.228.007l-4.86-2.991zm-25.482-4.232L22.06 30.593l13.427-8.277-.33 5.613 5.616-3.12c-.03-.216-.057-.434-.08-.652l-.194-.733-3.919 2.412.127-5.493zm20.257-8.154-1.798.922-1.816.928a714.033 714.033 0 0 1-6.991 3.527l2.367 4.674a.206.206 0 0 1 .016.145c-.167.645-.354 1.377-.548 2.136a475.317 475.317 0 0 1-1.017 3.937c.304.33.632.66.993 1.002l2.394-4.57a.208.208 0 0 1 .318-.062l.861.714 1.396 1.156 4.641-2.477-.336-.467-4.227 1.708a.21.21 0 0 1-.21-.032l-2.616-2.148a.209.209 0 0 1-.076-.148l-.073-1.333-.006-.11a.206.206 0 0 1 .058-.155l1.169-1.197-.418-3.525a.206.206 0 0 1 .08-.19l5.839-4.435zm6.373-.041 5.781 4.48a.205.205 0 0 1 .079.188l-.417 3.523 1.182 1.21c.04.042.062.1.058.157l-.078 1.415a.208.208 0 0 1-.075.148l-2.63 2.16a.21.21 0 0 1-.21.031L62.8 23.752l-.338.468 4.643 2.478 1.079-.893 1.178-.976a.207.207 0 0 1 .318.062l2.38 4.542c.365-.34.696-.663 1.005-.983a458.677 458.677 0 0 1-1.005-3.893c-.198-.772-.388-1.518-.558-2.172a.21.21 0 0 1 .016-.145l2.37-4.677a651.715 651.715 0 0 1-4.794-2.439l-1.682-.866c-1.401-.722-2.789-1.441-4.075-2.11zm-1.753 13.649h-2.89a.283.283 0 0 0-.233.124l-.4.588 2.09.633 2.055-.633-.385-.585a.283.283 0 0 0-.237-.127zm3.964-8.272-.078.048c.75.207 1.41.42 2.062.707a.207.207 0 0 1 .072.326l-.22.263c-.61.788-1.509 1.247-2.532 1.292a3.649 3.649 0 0 1-2.33-.72c.14 1.083.237 2.187.293 3.292l4.165 1.706 2.066-1.68.048-.8-1.192-1.232a.208.208 0 0 1-.056-.17l.43-3.473-.244-.196c-.821-.17-1.634.039-2.484.637zm-13.32-.64-.257.202.428 3.471a.205.205 0 0 1-.056.17l-1.179 1.219.05.824 2.05 1.666 4.165-1.707c.056-1.105.154-2.21.293-3.291a3.492 3.492 0 0 1-2.39.72 3.586 3.586 0 0 1-2.707-1.573.209.209 0 0 1-.03-.174.209.209 0 0 1 .117-.133c.654-.287 1.314-.5 2.062-.706a2.143 2.143 0 0 1-.07-.043c-.852-.6-1.66-.809-2.476-.645zm7.403-5.794L53.2 16.125c.022-.003.047 0 .07 0 .65.022 1.22.307 1.723.56l.143.07a5.618 5.618 0 0 0 3.246.692l.357-.027a.208.208 0 0 1 .22.247l-.222 1.15c-.25 1.3-.507 2.641-.818 3.96l.46.632.24.331.694.176.811-.005h.833l.673-.17.363-.503c.134-.187.262-.365.332-.46-.31-1.316-.567-2.655-.816-3.952l-.224-1.16a.208.208 0 0 1 .22-.246l.355.027a5.593 5.593 0 0 0 3.241-.687l.343-.171c.454-.224.962-.444 1.53-.463h.102l-6.297-5.03-1.148-.005zm38.31-.157-13.428 8.278.33-5.613-5.696 3.163.354 1.342 3.919-2.412-.127 5.493 14.647-10.25zm-42.507 6.983a14.54 14.54 0 0 1-1.399.768c.178.133.364.243.553.328.984.461 2.195.294 3.257-.446l.02-.139a6.17 6.17 0 0 1-2.431-.51zm9.376 0a5.791 5.791 0 0 1-2.431.51l.023.154c1.06.746 2.646.99 3.82.11a14.66 14.66 0 0 1-1.412-.774zm-7.695-6.832c-2.685.403-5.77.849-8.171 1.184l-1.543 1.37c-.278 1.081-.613 2.33-.895 3.336 1.372-.777 2.75-1.545 4.126-2.312l1.989-1.11 4.494-2.468zm6.166.005 6.343 3.545c1.372.774 2.744 1.548 4.11 2.332-.312-1.11-.653-2.398-.89-3.328l-1.544-1.37a627.393 627.393 0 0 1-6.192-.902l-1.22-.184-.607-.093zM52.72 9.447l-2.505 1.452 2.326-.32.686-.095c1.37-.191 2.707-.38 3.715-.522l.476-.067.755-.107-.206-.14a4.914 4.914 0 0 0-5.247-.201zm9.534.327-.025.018c.938.135 3.064.442 5.195.742l.671.095c.669.094 1.326.185 1.933.268l-2.418-1.402a4.915 4.915 0 0 0-5.356.279z" fill="#00C5FF"></path><path d="M0 46.572v2.756h1.937v7.748h3.465v-7.748h1.936v-2.756H0zm13.118 0v3.575h-1.874v-3.575H7.889v10.504h3.355v-3.89h1.874v3.89h3.37V46.572h-3.37zm9.764 6.536c0 .367-.076.648-.228.842-.152.194-.407.291-.764.291-.357 0-.612-.097-.764-.291-.152-.194-.228-.475-.228-.842v-6.536h-3.355v6.677c0 .693.103 1.297.307 1.811.205.515.496.94.874 1.276.378.336.835.588 1.37.756a5.985 5.985 0 0 0 1.796.252c.661 0 1.26-.084 1.795-.252.535-.168.995-.42 1.378-.756.383-.336.677-.761.882-1.276.205-.514.307-1.118.307-1.81v-6.678h-3.37v6.536zm10.079-2.489-2.898-4.047h-2.756v10.504h3.291v-4.032l2.882 4.032h2.772V46.572h-3.291v4.047zm9.574 2.906c-.43.372-1.039.559-1.826.559v-4.52c.787 0 1.396.184 1.826.551.43.368.646.935.646 1.7 0 .767-.215 1.337-.646 1.71m2.323-5.63c-.53-.441-1.18-.772-1.952-.992-.772-.22-1.652-.331-2.638-.331h-2.914v10.504h2.914c.986 0 1.866-.113 2.638-.339.771-.225 1.422-.559 1.952-1 .53-.44.935-.99 1.213-1.645.278-.656.417-1.415.417-2.276 0-.86-.14-1.62-.417-2.276a4.281 4.281 0 0 0-1.213-1.645m5.85 5.213h2.788v-2.615H50.71v-1.165h2.835v-2.756h-6.19v10.504h6.3V54.32h-2.945v-1.212zm8.433-1.638c-.278.178-.616.267-1.015.267h-.173v-2.33h.173c.399 0 .737.089 1.015.267.279.179.418.478.418.898 0 .42-.14.72-.418.898m3.064 1.448a4.11 4.11 0 0 0 .488-.913c.147-.367.22-.814.22-1.338 0-.662-.118-1.247-.354-1.757a3.606 3.606 0 0 0-.984-1.283 4.345 4.345 0 0 0-1.488-.787 6.249 6.249 0 0 0-1.867-.268h-3.622v10.504h3.355v-2.661l1.574 2.66h3.937l-1.968-3.464c.262-.189.499-.42.709-.693m12.031-.228a2.236 2.236 0 0 1-.472.701c-.2.2-.433.357-.701.472a2.144 2.144 0 0 1-.858.173c-.305 0-.59-.057-.859-.173a2.223 2.223 0 0 1-1.173-1.173 2.138 2.138 0 0 1-.173-.858c0-.305.057-.59.173-.858a2.227 2.227 0 0 1 1.173-1.174c.268-.115.554-.173.859-.173.304 0 .59.058.858.173.268.116.502.273.7.473.2.2.358.433.473.7.116.268.174.554.174.859 0 .305-.058.59-.174.858m1.867-4.756a5.581 5.581 0 0 0-1.756-1.181 5.376 5.376 0 0 0-2.142-.433c-.756 0-1.47.145-2.142.433a5.568 5.568 0 0 0-1.756 1.18 5.555 5.555 0 0 0-1.181 1.757 5.363 5.363 0 0 0-.433 2.142c0 .756.144 1.47.433 2.141a5.546 5.546 0 0 0 1.181 1.757 5.548 5.548 0 0 0 1.756 1.18 5.365 5.365 0 0 0 2.142.434 5.37 5.37 0 0 0 2.142-.433 5.561 5.561 0 0 0 1.756-1.181 5.572 5.572 0 0 0 1.18-1.757 5.374 5.374 0 0 0 .434-2.141c0-.756-.145-1.47-.433-2.142a5.581 5.581 0 0 0-1.181-1.756m2.48 9.142h3.354v-3.968h2.788v-2.615h-2.788v-1.165h2.835v-2.756h-6.19v10.504zm11.165-10.504-1.07 2.756h2.897l-3.654 7.748h7.292l1.055-2.756h-3.449l3.654-7.748h-6.725zm10.315 6.536h2.787v-2.615h-2.787v-1.165h2.835v-2.756h-6.19v10.504h6.3V54.32h-2.945v-1.212zm9.181 0c0 .367-.076.648-.228.842-.152.194-.407.291-.764.291-.357 0-.612-.097-.764-.291-.152-.194-.228-.475-.228-.842v-6.536h-3.355v6.677c0 .693.103 1.297.308 1.811.204.515.495.94.873 1.276a3.69 3.69 0 0 0 1.37.756 5.99 5.99 0 0 0 1.796.252c.661 0 1.26-.084 1.795-.252.535-.168.995-.42 1.378-.756.384-.336.677-.761.882-1.276.205-.514.307-1.118.307-1.81v-6.678h-3.37v6.536zm10.543-.284a4.429 4.429 0 0 0-.52-.96 4.698 4.698 0 0 0-.677-.757c-.246-.22-.472-.414-.677-.582a17.086 17.086 0 0 1-.52-.441c-.141-.126-.212-.231-.212-.315 0-.095.031-.168.094-.22a.553.553 0 0 1 .221-.111c.084-.021.173-.034.268-.04a3.457 3.457 0 0 1 .567.008l.283.032c.105.01.2.021.284.031v-2.944c-.22-.032-.447-.063-.677-.095l-.678-.07a7.354 7.354 0 0 0-.756-.04c-.483 0-.937.066-1.362.197a3.331 3.331 0 0 0-1.11.575 2.627 2.627 0 0 0-.74.945c-.179.377-.268.813-.268 1.307 0 .44.073.832.22 1.173.148.341.334.648.56.921.225.273.466.514.724.725.257.21.498.401.725.574.225.174.411.33.558.473.147.141.22.28.22.417 0 .357-.24.535-.724.535-.273 0-.543-.015-.81-.047a5.737 5.737 0 0 1-.717-.126 5.206 5.206 0 0 1-.725-.173v3.15c.253.073.53.136.835.189a10.516 10.516 0 0 0 2.016.189c.661 0 1.234-.087 1.716-.26.483-.173.88-.41 1.19-.709.309-.299.537-.65.684-1.055.147-.404.221-.837.221-1.3 0-.44-.071-.84-.213-1.196" fill="#27353E"></path></g></svg>