<svg xmlns="http://www.w3.org/2000/svg" width="120" height="57" viewBox="0 0 120 57"><g fill="none" fill-rule="evenodd"><path d="M114 0 82.039 23.461l-.03-5.594L79.48 19.5c.126.903.19 1.826.19 2.764C79.67 33.165 70.92 42 60.126 42c-8.098 0-15.046-4.973-18.012-12.06l-9.831 5.329.133-3.64-16.157 6.46 16.255-9.142.038-1.012L6 41.931 37.961 18.47l.03 5.594 2.59-1.675-.001-.124c0-10.9 8.75-19.735 19.545-19.735 7.248 0 13.575 3.983 16.95 9.9l10.643-5.768-.133 3.64 16.157-6.46-16.255 9.142-.038 1.012L114 0zM60.25 4.554c-9.602 0-17.415 7.888-17.415 17.585 0 9.696 7.813 17.584 17.416 17.584 9.603 0 17.415-7.888 17.415-17.584 0-9.697-7.812-17.585-17.415-17.585zm-2.4 4.125.268.144c.465.25.986.38 1.513.38l1.163-.004a3.171 3.171 0 0 0 1.564-.418l.221-.12a4.874 4.874 0 0 1 4.71.175l3.65 2.193c.14.085.296.14.459.162.237.032.456.13.633.284l1.838 1.59.061.094c.391 1.333.889 3.29 1.186 4.459l.038.148a.212.212 0 0 1-.016.146l-2.4 4.757c.168.71.363 1.505.561 2.32.337 1.378.686 2.808.948 3.965a.183.183 0 0 1-.048.17c-3.367 3.508-7.716 6.093-12.616 7.506.955.229 1.94.425 2.935.586a.21.21 0 0 1 .015.41l-.014.004a17.101 17.101 0 0 1-8.612.048l-.014-.003a.21.21 0 0 1 0-.415 32.055 32.055 0 0 0 3.147-.622c-5.238-1.398-9.68-3.946-12.884-7.397l-.107-.123a.208.208 0 0 1-.047-.184l.04-.177c.254-1.111.6-2.529.93-3.885.19-.778.376-1.536.535-2.203l-2.4-4.757-.017-.147.156-.604c.326-1.268.731-2.846 1.068-4.003l.061-.093 1.838-1.59c.179-.154.398-.252.631-.284l.121-.022c.12-.029.235-.076.341-.14l3.72-2.235a4.876 4.876 0 0 1 4.825-.115zm2.484 28.276c-.853.208-1.718.37-2.584.503l5.143-.027a35.342 35.342 0 0 1-2.559-.476zm-1.77-9.015-1.072 5.788a.207.207 0 0 1-.296.15c-.03-.013-.503-.199-1.004-.395l-.656-.259-.316 1.238a33.902 33.902 0 0 0 5.083 1.836 31.261 31.261 0 0 0 4.73-1.806l-.324-1.267-.638.25-1.036.409a.206.206 0 0 1-.178-.011.207.207 0 0 1-.105-.145l-1.069-5.777-1.467.456a.212.212 0 0 1-.122 0l-1.53-.467zm4.78-.505-1.252.39 1.264 5.022 1.741-.93a.204.204 0 0 1 .162-.014.205.205 0 0 1 .122.106c.038.077.354.696.648 1.274l.282.554c.742-.4 1.46-.83 2.14-1.277l-.596-2.425-1.602 1.063a.207.207 0 0 1-.284-.054l-2.625-3.71zm-6.442-.002-2.627 3.711a.207.207 0 0 1-.284.054l-1.602-1.063-.603 2.454c.677.435 1.399.851 2.15 1.241l.398-.781.529-1.041a.208.208 0 0 1 .284-.091l1.741.93 1.266-5.032-1.252-.382zm1.159-2.622-4.866 3.022a.206.206 0 0 1-.228-.006l-1.888-1.313-1.754 4.266c.418.352.815.663 1.2.948l.538-1.338.676-1.683a.208.208 0 0 1 .325-.085l1.943 1.594 2.634-3.136c.015-.017.037-.018.056-.03l.96-1.425a1.252 1.252 0 0 1 1.038-.554h.303l-.788-.205a.521.521 0 0 1-.15-.055zm4.128.002a.21.21 0 0 1-.06.027l-.88.23h.335c.424 0 .816.213 1.049.57l.923 1.415c.015.01.035.01.048.025l2.633 3.135 1.943-1.593a.211.211 0 0 1 .188-.039.21.21 0 0 1 .14.131c.02.056.405 1.011.774 1.927l.422 1.047c.379-.282.775-.594 1.2-.949l-1.739-4.225-1.888 1.313a.204.204 0 0 1-.228.006l-4.86-3.02zM36.707 20.54 22.06 30.89l13.427-8.358-.33 5.668 5.616-3.148c-.03-.219-.057-.438-.08-.66l-.194-.74-3.919 2.435.127-5.547zm20.257-8.233a909.03 909.03 0 0 1-10.605 5.43l2.367 4.719a.21.21 0 0 1 .016.147c-.167.651-.354 1.39-.548 2.156a483.717 483.717 0 0 1-1.017 3.975c.304.333.632.666.993 1.012l2.394-4.613a.208.208 0 0 1 .318-.064l.861.721 1.396 1.167 4.641-2.5-.336-.472-4.227 1.724a.208.208 0 0 1-.21-.032l-2.616-2.169a.211.211 0 0 1-.076-.15l-.073-1.346-.006-.11a.21.21 0 0 1 .058-.157l1.169-1.209-.418-3.559a.21.21 0 0 1 .08-.19l5.839-4.48zm6.373-.041 5.781 4.524a.208.208 0 0 1 .079.19l-.417 3.556 1.182 1.223c.04.042.062.1.058.157l-.078 1.429a.21.21 0 0 1-.075.15l-2.63 2.18a.21.21 0 0 1-.21.032L62.8 23.982l-.338.473 4.643 2.502 1.079-.902 1.178-.985a.206.206 0 0 1 .318.063l2.38 4.585c.365-.342.696-.669 1.005-.992a466.784 466.784 0 0 1-1.005-3.93c-.198-.78-.388-1.534-.558-2.193a.213.213 0 0 1 .016-.147l2.37-4.722a960.359 960.359 0 0 1-10.551-5.468zm-1.753 13.781h-2.89a.283.283 0 0 0-.233.125l-.4.595 2.09.638 2.055-.638-.385-.591a.282.282 0 0 0-.237-.129zm3.964-8.352-.078.049c.75.209 1.41.423 2.062.713a.21.21 0 0 1 .072.33l-.22.266a3.324 3.324 0 0 1-2.532 1.304 3.624 3.624 0 0 1-2.33-.727c.14 1.093.237 2.208.293 3.323l4.165 1.723 2.066-1.695.048-.809-1.192-1.244a.211.211 0 0 1-.056-.17l.43-3.509-.244-.197c-.821-.172-1.634.039-2.484.643zm-13.32-.646-.257.204.428 3.505a.208.208 0 0 1-.056.17l-1.179 1.232.05.832 2.05 1.682 4.165-1.723c.056-1.116.154-2.231.293-3.324-.676.529-1.52.79-2.39.728-1.087-.077-2.074-.657-2.707-1.589a.21.21 0 0 1 .088-.31c.653-.29 1.313-.504 2.061-.712a2.14 2.14 0 0 1-.07-.044c-.852-.606-1.66-.817-2.476-.65zm7.403-5.85L53.2 16.282c.022-.003.047 0 .07 0 .57.02 1.077.242 1.532.468l.334.168a5.573 5.573 0 0 0 3.246.699l.357-.028a.198.198 0 0 1 .171.069c.043.05.061.115.049.18L58.737 19c-.25 1.312-.507 2.667-.818 3.998l.46.638.24.335.694.178.811-.006h.833l.673-.172.363-.507c.134-.189.262-.369.332-.465-.31-1.329-.567-2.681-.816-3.99l-.224-1.171a.211.211 0 0 1 .05-.18.198.198 0 0 1 .17-.07l.355.028a5.548 5.548 0 0 0 3.241-.694l.151-.076c.503-.254 1.072-.542 1.721-.564h.103l-6.297-5.078-1.148-.005zm38.31-.158-13.428 8.358.33-5.668-5.696 3.194.354 1.354 3.919-2.435-.127 5.547 14.647-10.35zm-42.507 7.05c-.449.29-.927.54-1.399.776.178.134.364.244.553.33.984.466 2.195.297 3.257-.45l.02-.14a6.12 6.12 0 0 1-2.431-.516zm9.376 0a5.744 5.744 0 0 1-2.431.516l.023.154c1.06.753 2.646 1 3.82.112-.477-.239-.959-.489-1.412-.782zm-7.695-6.898a859.56 859.56 0 0 1-8.171 1.195L47.4 13.77a167.5 167.5 0 0 1-.895 3.369c1.372-.785 2.75-1.56 4.126-2.334l1.989-1.121 4.494-2.492zm6.166.005 6.343 3.579c1.372.782 2.744 1.563 4.11 2.355a156.942 156.942 0 0 1-.89-3.36L71.3 12.387a621.738 621.738 0 0 1-6.192-.91l-1.22-.187-.607-.093zM52.72 9.538l-2.505 1.467 1.983-.275 1.029-.144 3.457-.49.734-.105.755-.108-.206-.142a4.874 4.874 0 0 0-5.247-.203zm9.534.33-.025.019c.888.13 2.844.414 4.859.702l.672.095c.784.112 1.56.221 2.268.32l-2.418-1.417a4.876 4.876 0 0 0-5.356.282z" fill="#00C5FF"></path><path d="M0 46.251v2.75h1.937v7.732h3.465V49h1.936v-2.75H0zm13.118 0v3.568h-1.874V46.25H7.889v10.482h3.355V52.85h1.874v3.882h3.37V46.25h-3.37zm9.764 6.522c0 .367-.076.646-.228.84-.152.194-.407.291-.764.291-.357 0-.612-.097-.764-.29-.152-.195-.228-.474-.228-.841V46.25h-3.355v6.663c0 .692.103 1.294.307 1.807.205.514.496.938.874 1.273.378.335.835.587 1.37.754A5.997 5.997 0 0 0 21.89 57c.661 0 1.26-.084 1.795-.252.535-.167.995-.419 1.378-.754.383-.335.677-.76.882-1.273.205-.513.307-1.115.307-1.807v-6.663h-3.37v6.522zm10.079-2.483-2.898-4.039h-2.756v10.482h3.291V52.71l2.882 4.023h2.772V46.25h-3.291v4.039zm9.574 2.9c-.43.37-1.039.557-1.826.557v-4.51c.787 0 1.396.183 1.826.55.43.367.646.933.646 1.697 0 .765-.215 1.334-.646 1.705m2.323-5.618c-.53-.44-1.18-.77-1.952-.99-.772-.22-1.652-.33-2.638-.33h-2.914v10.482h2.914c.986 0 1.866-.113 2.638-.338.771-.225 1.422-.558 1.952-.998a4.27 4.27 0 0 0 1.213-1.642c.278-.655.417-1.412.417-2.27 0-.86-.14-1.617-.417-2.272a4.272 4.272 0 0 0-1.213-1.642m5.85 5.202h2.788v-2.609H50.71v-1.163h2.835v-2.75h-6.19v10.482h6.3v-2.75h-2.945v-1.21zm8.433-1.635c-.278.179-.616.268-1.015.268h-.173V49.08h.173c.399 0 .737.089 1.015.267.279.178.418.477.418.896 0 .419-.14.718-.418.895m3.064 1.446c.178-.24.34-.545.488-.911.147-.367.22-.812.22-1.336 0-.66-.118-1.244-.354-1.752a3.599 3.599 0 0 0-.984-1.28 4.348 4.348 0 0 0-1.488-.787 6.261 6.261 0 0 0-1.867-.267h-3.622v10.482h3.355v-2.656l1.574 2.656h3.937l-1.968-3.457c.262-.19.499-.42.709-.692m12.031-.228a2.23 2.23 0 0 1-.472.7 2.23 2.23 0 0 1-.701.471 2.148 2.148 0 0 1-.858.173c-.305 0-.59-.058-.859-.173a2.217 2.217 0 0 1-1.173-1.17A2.129 2.129 0 0 1 70 51.5c0-.304.057-.59.173-.856a2.222 2.222 0 0 1 1.173-1.171c.268-.115.554-.173.859-.173.304 0 .59.058.858.173.268.115.502.272.7.471.2.2.358.433.473.7.116.267.174.552.174.856 0 .304-.058.59-.174.856m1.867-4.746a5.582 5.582 0 0 0-1.756-1.178A5.386 5.386 0 0 0 72.205 46c-.756 0-1.47.144-2.142.432a5.569 5.569 0 0 0-1.756 1.178 5.542 5.542 0 0 0-1.181 1.753 5.341 5.341 0 0 0-.433 2.137c0 .754.144 1.467.433 2.137.288.67.682 1.255 1.181 1.752a5.55 5.55 0 0 0 1.756 1.179 5.375 5.375 0 0 0 2.142.432 5.38 5.38 0 0 0 2.142-.432 5.562 5.562 0 0 0 1.756-1.179 5.56 5.56 0 0 0 1.18-1.752c.29-.67.434-1.383.434-2.137s-.145-1.467-.433-2.137a5.568 5.568 0 0 0-1.181-1.753m2.48 9.123h3.354v-3.96h2.788v-2.609h-2.788v-1.163h2.835v-2.75h-6.19v10.482zM89.748 46.25l-1.07 2.75h2.897l-3.654 7.732h7.292l1.055-2.75h-3.449l3.654-7.732h-6.725zm10.315 6.522h2.787v-2.609h-2.787v-1.163h2.835v-2.75h-6.19v10.482h6.3v-2.75h-2.945v-1.21zm9.181 0c0 .367-.076.646-.228.84-.152.194-.407.291-.764.291-.357 0-.612-.097-.764-.29-.152-.195-.228-.474-.228-.841V46.25h-3.355v6.663c0 .692.103 1.294.308 1.807.204.514.495.938.873 1.273.378.335.835.587 1.37.754a6.002 6.002 0 0 0 1.796.252 6 6 0 0 0 1.795-.252c.535-.167.995-.419 1.378-.754.384-.335.677-.76.882-1.273.205-.513.307-1.115.307-1.807v-6.663h-3.37v6.522zm10.543-.283a4.416 4.416 0 0 0-.52-.959 4.691 4.691 0 0 0-.677-.754c-.246-.22-.472-.414-.677-.581a17.076 17.076 0 0 1-.52-.44c-.141-.126-.212-.23-.212-.314a.27.27 0 0 1 .094-.22.553.553 0 0 1 .221-.11 1.45 1.45 0 0 1 .268-.04 3.465 3.465 0 0 1 .567.008c.105.01.2.021.283.031.105.01.2.022.284.032v-2.939l-.677-.094-.678-.07a7.37 7.37 0 0 0-.756-.04c-.483 0-.937.066-1.362.196a3.334 3.334 0 0 0-1.11.574 2.622 2.622 0 0 0-.74.943c-.179.377-.268.812-.268 1.304 0 .44.073.83.22 1.17.148.341.334.648.56.92.225.273.466.513.724.723.257.21.498.4.725.573.225.173.411.33.558.472.147.141.22.28.22.416 0 .356-.24.534-.724.534a6.95 6.95 0 0 1-.81-.047 5.748 5.748 0 0 1-.717-.125 5.216 5.216 0 0 1-.725-.173v3.143c.253.073.53.136.835.188a10.537 10.537 0 0 0 2.016.189c.661 0 1.234-.086 1.716-.26.483-.172.88-.408 1.19-.706.309-.299.537-.65.684-1.053a3.76 3.76 0 0 0 .221-1.297c0-.44-.071-.838-.213-1.194" fill="#FFF"></path></g></svg>